# xmcd
#
# Track frame offsets: 
#        150
#        9701
#        21126
#        33168
#        43381
#        54930
#        64570
#        77168
#        87568
#        98729
#        109523
#        119681
#        127887
#        137171
#        147927
#        160516
#        172917
#        187171
#        201482
#        211352
#        220828
#        230537
#        243168
#        256560
#        271320
#        280821
#        291780
#        301815
#
# Disc length: 4190 seconds
#
# Revision: 1
# Processed by: cddbd v1.5.2PL0 Copyright (c) Steve Scherf et al.
# Submitted via: ExactAudioCopyFreeDBPlugin 1.0
#
DISCID=8c105c1c
DTITLE=Various Artist - By the Bayou [Ace Records]
DYEAR=2013
DGENRE=Rhythm and Blues
TTITLE0=Silas Hogan - Just Give Me a Chance
TTITLE1=Slim Harpo - That's Alright
TTITLE2=Lazy Lester - Late in the Evening
TTITLE3=Clifton Chenier - Worried Life Blues
TTITLE4=Thaddeus Declouet - Catch the Morning Train
TTITLE5=Lightnin' Slim - Big Fat Woman (aka "I'm Him")
TTITLE6=Joe Rich - Dreaming, Dreaming
TTITLE7=Jimmy Dotson - Oh Baby
TTITLE8=Mr. Mojo - They Say the World Loves a Lover
TTITLE9=Jimmy Anderson - In the Dark in the Park
TTITLE10=Blues Boy Dorsey - Walkin' Out My Door
TTITLE11=Joe Mayfield - I'm a Natural Born Man
TTITLE12=Boogie Jake - Early Morning Blues
TTITLE13=Honey Boy Allen - I'm a Real Lover Baby
TTITLE14=Boozoo Chavis - Forty One Days
TTITLE15=Thaddeus Declouet - Trouble Trouble
TTITLE16=Talton Miller - Long Journey (Life's Journey)
TTITLE17=Left Hand Charlie - Gonna Miss My Lognion
TTITLE18=Lightnin' Slim - I Ain't Got No Money
TTITLE19=Lonesome Sundown - I'm a Samplin' Man
TTITLE20=Lazy Lester - I'm Gonna Leave You Baby
TTITLE21=Lightnin' Slim - Stranger in Your Town
TTITLE22=Silas Hogan - Sitting Here Wondering
TTITLE23=Leroy Washington - Lost Love Letter Blues
TTITLE24=Joe Rich - Lonesome Lover Blues
TTITLE25=Jimmy Anderson - I Want You, I Need You
TTITLE26=Sylvester Buckley - I Can Be on My Way
TTITLE27=Johnny Sonnier - Slow Walking Fever and the Asiatic Flu
EXTD=
EXTT0=
EXTT1=
EXTT2=
EXTT3=
EXTT4=
EXTT5=
EXTT6=
EXTT7=
EXTT8=
EXTT9=
EXTT10=
EXTT11=
EXTT12=
EXTT13=
EXTT14=
EXTT15=
EXTT16=
EXTT17=
EXTT18=
EXTT19=
EXTT20=
EXTT21=
EXTT22=
EXTT23=
EXTT24=
EXTT25=
EXTT26=
EXTT27=
PLAYORDER=
